<svg xmlns="http://www.w3.org/2000/svg" viewBox="0 0 1200 1200" version="1.1" height="1200pt" width="1200pt">
 <path stroke-width="1.0599" stroke-miterlimit="10" stroke-linecap="round" stroke="#000" fill="none" d="m24.633 76.653 1.6318-0.003906" transform="scale(12)"></path>
 <path stroke-width="1.0599" stroke-miterlimit="10" stroke-linecap="round" stroke="#000" fill="none" d="m96.725 76.653 0.8151-0.003906" transform="scale(12)"></path>
 <path stroke-width="1.0599" stroke-miterlimit="10" stroke-linecap="round" stroke="#000" fill="none" d="m88.776 76.653 0.19987-0.003906" transform="scale(12)"></path>
 <path stroke-width="1.0599" stroke-miterlimit="10" stroke-linecap="round" stroke="#000" fill="none" d="m24.146 72.738 4.2389-0.001953" transform="scale(12)"></path>
 <path stroke-width="1.0599" stroke-miterlimit="10" stroke-linecap="round" stroke="#000" fill="none" d="m87.647 72.738 3.349-0.001953" transform="scale(12)"></path>
 <path stroke-width="1.0599" stroke-miterlimit="10" stroke-linecap="round" stroke="#000" fill="none" d="m24.367 68.831 6.3802-0.003907" transform="scale(12)"></path>
 <path stroke-width="1.0599" stroke-miterlimit="10" stroke-linecap="round" stroke="#000" fill="none" d="m50.487 68.831 4.8359-0.003907" transform="scale(12)"></path>
 <path stroke-width="1.0599" stroke-miterlimit="10" stroke-linecap="round" stroke="#000" fill="none" d="m80.76 68.831 11.724-0.003907" transform="scale(12)"></path>
 <path stroke-width="1.0599" stroke-miterlimit="10" stroke-linecap="round" stroke="#000" fill="none" d="m23.405 64.92 10.478-0.001953" transform="scale(12)"></path>
 <path stroke-width="1.0599" stroke-miterlimit="10" stroke-linecap="round" stroke="#000" fill="none" d="m49.67 64.92 7.9072-0.001953" transform="scale(12)"></path>
 <path stroke-width="1.0599" stroke-miterlimit="10" stroke-linecap="round" stroke="#000" fill="none" d="m59.413 64.92 1.1628-0.001953" transform="scale(12)"></path>
 <path stroke-width="1.0599" stroke-miterlimit="10" stroke-linecap="round" stroke="#000" fill="none" d="m84.469 64.92 3.3171-0.001953" transform="scale(12)"></path>
 <path stroke-width="1.0599" stroke-miterlimit="10" stroke-linecap="round" stroke="#000" fill="none" d="m89.898 64.92 0.70898-0.001953" transform="scale(12)"></path>
 <path stroke-width="1.0599" stroke-miterlimit="10" stroke-linecap="round" stroke="#000" fill="none" d="m97.919 64.92v-0.001953" transform="scale(12)"></path>
 <path stroke-width="1.0599" stroke-miterlimit="10" stroke-linecap="round" stroke="#000" fill="none" d="m20.844 61.007h13.039" transform="scale(12)"></path>
 <path stroke-width="1.0599" stroke-miterlimit="10" stroke-linecap="round" stroke="#000" fill="none" d="m48.898 61.007h6.2269" transform="scale(12)"></path>
 <path stroke-width="1.0599" stroke-miterlimit="10" stroke-linecap="round" stroke="#000" fill="none" d="m55.984 61.007h1.5931" transform="scale(12)"></path>
 <path stroke-width="1.0599" stroke-miterlimit="10" stroke-linecap="round" stroke="#000" fill="none" d="m77.579 61.007h1.0599" transform="scale(12)"></path>
 <path stroke-width="1.0599" stroke-miterlimit="10" stroke-linecap="round" stroke="#000" fill="none" d="m81.124 61.007h0.52995" transform="scale(12)"></path>
 <path stroke-width="1.0599" stroke-miterlimit="10" stroke-linecap="round" stroke="#000" fill="none" d="m83.321 61.007v0" transform="scale(12)"></path>
 <path stroke-width="1.0599" stroke-miterlimit="10" stroke-linecap="round" stroke="#000" fill="none" d="m85.616 61.007v0" transform="scale(12)"></path>
 <path stroke-width="1.0599" stroke-miterlimit="10" stroke-linecap="round" stroke="#000" fill="none" d="m90.252 61.007h-2.4658" transform="scale(12)"></path>
 <path stroke-width="1.0599" stroke-miterlimit="10" stroke-linecap="round" stroke="#000" fill="none" d="m93.387 61.007v0" transform="scale(12)"></path>
 <path stroke-width="1.0599" stroke-miterlimit="10" stroke-linecap="round" stroke="#000" fill="none" d="m19.652 57.097h1.1921" transform="scale(12)"></path>
 <path stroke-width="1.0599" stroke-miterlimit="10" stroke-linecap="round" stroke="#000" fill="none" d="m22.38 57.097h4.5052" transform="scale(12)"></path>
 <path stroke-width="1.0599" stroke-miterlimit="10" stroke-linecap="round" stroke="#000" fill="none" d="m41.744 57.097h19.143" transform="scale(12)"></path>
 <path stroke-width="1.0599" stroke-miterlimit="10" stroke-linecap="round" stroke="#000" fill="none" d="m70.912 57.097v0" transform="scale(12)"></path>
 <path stroke-width="1.0599" stroke-miterlimit="10" stroke-linecap="round" stroke="#000" fill="none" d="m69.743 57.097h0.15332" transform="scale(12)"></path>
 <path stroke-width="1.0599" stroke-miterlimit="10" stroke-linecap="round" stroke="#000" fill="none" d="m76.564 57.097v0" transform="scale(12)"></path>
 <path stroke-width="1.0599" stroke-miterlimit="10" stroke-linecap="round" stroke="#000" fill="none" d="m84.502 57.097v0" transform="scale(12)"></path>
 <path stroke-width="1.0599" stroke-miterlimit="10" stroke-linecap="round" stroke="#000" fill="none" d="m13.746 53.187h2.151" transform="scale(12)"></path>
 <path stroke-width="1.0599" stroke-miterlimit="10" stroke-linecap="round" stroke="#000" fill="none" d="m18.013 53.187h0.6569" transform="scale(12)"></path>
 <path stroke-width="1.0599" stroke-miterlimit="10" stroke-linecap="round" stroke="#000" fill="none" d="m21.886 53.187h0.65592" transform="scale(12)"></path>
 <path stroke-width="1.0599" stroke-miterlimit="10" stroke-linecap="round" stroke="#000" fill="none" d="m40.749 53.187h15.679" transform="scale(12)"></path>
 <path stroke-width="1.0599" stroke-miterlimit="10" stroke-linecap="round" stroke="#000" fill="none" d="m58.325 53.187h5.3451" transform="scale(12)"></path>
 <path stroke-width="1.0599" stroke-miterlimit="10" stroke-linecap="round" stroke="#000" fill="none" d="m68.352 53.187h3.6211" transform="scale(12)"></path>
 <path stroke-width="1.0599" stroke-miterlimit="10" stroke-linecap="round" stroke="#000" fill="none" d="m74.355 53.187h4.0208" transform="scale(12)"></path>
 <path stroke-width="1.0599" stroke-miterlimit="10" stroke-linecap="round" stroke="#000" fill="none" d="m10.633 49.276h10.543" transform="scale(12)"></path>
 <path stroke-width="1.0599" stroke-miterlimit="10" stroke-linecap="round" stroke="#000" fill="none" d="m43.311 49.276h6.1012" transform="scale(12)"></path>
 <path stroke-width="1.0599" stroke-miterlimit="10" stroke-linecap="round" stroke="#000" fill="none" d="m52.062 49.276h1.374" transform="scale(12)"></path>
 <path stroke-width="1.0599" stroke-miterlimit="10" stroke-linecap="round" stroke="#000" fill="none" d="m56.282 49.276h26.051" transform="scale(12)"></path>
 <path stroke-width="1.0599" stroke-miterlimit="10" stroke-linecap="round" stroke="#000" fill="none" d="m85.22 49.276v0" transform="scale(12)"></path>
 <path stroke-width="1.0599" stroke-miterlimit="10" stroke-linecap="round" stroke="#000" fill="none" d="m8.8659 45.367 10.378-0.007813" transform="scale(12)"></path>
 <path stroke-width="1.0599" stroke-miterlimit="10" stroke-linecap="round" stroke="#000" fill="none" d="m20.613 45.367 0.56315-0.007813" transform="scale(12)"></path>
 <path stroke-width="1.0599" stroke-miterlimit="10" stroke-linecap="round" stroke="#000" fill="none" d="m22.77 45.367 2.0723-0.007813" transform="scale(12)"></path>
 <path stroke-width="1.0599" stroke-miterlimit="10" stroke-linecap="round" stroke="#000" fill="none" d="m45.585 45.367 1.347-0.007813" transform="scale(12)"></path>
 <path stroke-width="1.0599" stroke-miterlimit="10" stroke-linecap="round" stroke="#000" fill="none" d="m48.919 45.367v-0.007813" transform="scale(12)"></path>
 <path stroke-width="1.0599" stroke-miterlimit="10" stroke-linecap="round" stroke="#000" fill="none" d="m50.422 45.367 3.014-0.007813" transform="scale(12)"></path>
 <path stroke-width="1.0599" stroke-miterlimit="10" stroke-linecap="round" stroke="#000" fill="none" d="m57.577 45.367 1.4108-0.007813" transform="scale(12)"></path>
 <path stroke-width="1.0599" stroke-miterlimit="10" stroke-linecap="round" stroke="#000" fill="none" d="m61.352 45.367 19.326-0.007813" transform="scale(12)"></path>
 <path stroke-width="1.0599" stroke-miterlimit="10" stroke-linecap="round" stroke="#000" fill="none" d="m82.333 45.367 1.6859-0.007813" transform="scale(12)"></path>
 <path stroke-width="1.0599" stroke-miterlimit="10" stroke-linecap="round" stroke="#000" fill="none" d="m87.511 45.367 0.31706-0.007813" transform="scale(12)"></path>
 <path stroke-width="1.0599" stroke-miterlimit="10" stroke-linecap="round" stroke="#000" fill="none" d="m10.146 41.325 7.1979-9.77e-4" transform="scale(12)"></path>
 <path stroke-width="1.0599" stroke-miterlimit="10" stroke-linecap="round" stroke="#000" fill="none" d="m18.67 41.325 3.5439-9.77e-4" transform="scale(12)"></path>
 <path stroke-width="1.0599" stroke-miterlimit="10" stroke-linecap="round" stroke="#000" fill="none" d="m23.884 41.325 6.002-9.77e-4" transform="scale(12)"></path>
 <path stroke-width="1.0599" stroke-miterlimit="10" stroke-linecap="round" stroke="#000" fill="none" d="m44.989 41.325 0.50391-9.77e-4" transform="scale(12)"></path>
 <path stroke-width="1.0599" stroke-miterlimit="10" stroke-linecap="round" stroke="#000" fill="none" d="m43.311 41.325v0" transform="scale(12)"></path>
 <path stroke-width="1.0599" stroke-miterlimit="10" stroke-linecap="round" stroke="#000" fill="none" d="m47.421 41.325 38.043-9.77e-4" transform="scale(12)"></path>
 <path stroke-width="1.0599" stroke-miterlimit="10" stroke-linecap="round" stroke="#000" fill="none" d="m86.82 41.325v-9.77e-4" transform="scale(12)"></path>
 <path stroke-width="1.0599" stroke-miterlimit="10" stroke-linecap="round" stroke="#000" fill="none" d="m89.768 41.325v-9.77e-4" transform="scale(12)"></path>
 <path stroke-width="1.0599" stroke-miterlimit="10" stroke-linecap="round" stroke="#000" fill="none" d="m8.5791 37.417 11.238-0.003906" transform="scale(12)"></path>
 <path stroke-width="1.0599" stroke-miterlimit="10" stroke-linecap="round" stroke="#000" fill="none" d="m24.632 37.417 2.0498-0.003906" transform="scale(12)"></path>
 <path stroke-width="1.0599" stroke-miterlimit="10" stroke-linecap="round" stroke="#000" fill="none" d="m33.178 37.417 1.0251-0.003906" transform="scale(12)"></path>
 <path stroke-width="1.0599" stroke-miterlimit="10" stroke-linecap="round" stroke="#000" fill="none" d="m47.421 37.417 2.3711-0.003906" transform="scale(12)"></path>
 <path stroke-width="1.0599" stroke-miterlimit="10" stroke-linecap="round" stroke="#000" fill="none" d="m51.562 37.419 2.3711-0.002929" transform="scale(12)"></path>
 <path stroke-width="1.0599" stroke-miterlimit="10" stroke-linecap="round" stroke="#000" fill="none" d="m55.323 37.419 27.788-0.002929" transform="scale(12)"></path>
 <path stroke-width="1.0599" stroke-miterlimit="10" stroke-linecap="round" stroke="#000" fill="none" d="m89.768 37.419 0.83919-0.002929" transform="scale(12)"></path>
 <path stroke-width="1.0599" stroke-miterlimit="10" stroke-linecap="round" stroke="#000" fill="none" d="m1.306 33.377 21.745-9.76e-4" transform="scale(12)"></path>
 <path stroke-width="1.0599" stroke-miterlimit="10" stroke-linecap="round" stroke="#000" fill="none" d="m24.102 33.377 0.53027-9.76e-4" transform="scale(12)"></path>
 <path stroke-width="1.0599" stroke-miterlimit="10" stroke-linecap="round" stroke="#000" fill="none" d="m27.501 33.377 1.6742-9.76e-4" transform="scale(12)"></path>
 <path stroke-width="1.0599" stroke-miterlimit="10" stroke-linecap="round" stroke="#000" fill="none" d="m32.66 33.377 6.8317-9.76e-4" transform="scale(12)"></path>
 <path stroke-width="1.0599" stroke-miterlimit="10" stroke-linecap="round" stroke="#000" fill="none" d="m50.422 33.377 3.68-9.76e-4" transform="scale(12)"></path>
 <path stroke-width="1.0599" stroke-miterlimit="10" stroke-linecap="round" stroke="#000" fill="none" d="m57.577 33.377 5.2979-9.76e-4" transform="scale(12)"></path>
 <path stroke-width="1.0599" stroke-miterlimit="10" stroke-linecap="round" stroke="#000" fill="none" d="m64.282 33.378 22.704-9.77e-4" transform="scale(12)"></path>
 <path stroke-width="1.0599" stroke-miterlimit="10" stroke-linecap="round" stroke="#000" fill="none" d="m89.768 33.378v-9.77e-4" transform="scale(12)"></path>
 <path stroke-width="1.0599" stroke-miterlimit="10" stroke-linecap="round" stroke="#000" fill="none" d="m2.6621 29.47 12.917-0.005208" transform="scale(12)"></path>
 <path stroke-width="1.0599" stroke-miterlimit="10" stroke-linecap="round" stroke="#000" fill="none" d="m17.565 29.47 3.0479-0.005208" transform="scale(12)"></path>
 <path stroke-width="1.0599" stroke-miterlimit="10" stroke-linecap="round" stroke="#000" fill="none" d="m22.004 29.47 0.42025-0.005208" transform="scale(12)"></path>
 <path stroke-width="1.0599" stroke-miterlimit="10" stroke-linecap="round" stroke="#000" fill="none" d="m24.632 29.47 0.41895-0.005208" transform="scale(12)"></path>
 <path stroke-width="1.0599" stroke-miterlimit="10" stroke-linecap="round" stroke="#000" fill="none" d="m25.823 29.47 1.2272-0.005208" transform="scale(12)"></path>
 <path stroke-width="1.0599" stroke-miterlimit="10" stroke-linecap="round" stroke="#000" fill="none" d="m32.933 29.47 7.8161-0.005208" transform="scale(12)"></path>
 <path stroke-width="1.0599" stroke-miterlimit="10" stroke-linecap="round" stroke="#000" fill="none" d="m58.337 29.47 0.061198-0.005208" transform="scale(12)"></path>
 <path stroke-width="1.0599" stroke-miterlimit="10" stroke-linecap="round" stroke="#000" fill="none" d="m61.488 29.47 0.062174-0.005208" transform="scale(12)"></path>
 <path stroke-width="1.0599" stroke-miterlimit="10" stroke-linecap="round" stroke="#000" fill="none" d="m64.251 29.47 27.812-0.005208" transform="scale(12)"></path>
 <path stroke-width="1.0599" stroke-miterlimit="10" stroke-linecap="round" stroke="#000" fill="none" d="m7.277 25.283h1.0599" transform="scale(12)"></path>
 <path stroke-width="1.0599" stroke-miterlimit="10" stroke-linecap="round" stroke="#000" fill="none" d="m19.553 25.283h1.0599" transform="scale(12)"></path>
 <path stroke-width="1.0599" stroke-miterlimit="10" stroke-linecap="round" stroke="#000" fill="none" d="m21.65 25.283h0.17806" transform="scale(12)"></path>
 <path stroke-width="1.0599" stroke-miterlimit="10" stroke-linecap="round" stroke="#000" fill="none" d="m23.35 25.283h0.17708" transform="scale(12)"></path>
 <path stroke-width="1.0599" stroke-miterlimit="10" stroke-linecap="round" stroke="#000" fill="none" d="m25.139 25.283v0" transform="scale(12)"></path>
 <path stroke-width="1.0599" stroke-miterlimit="10" stroke-linecap="round" stroke="#000" fill="none" d="m29.622 25.283h-2.5182" transform="scale(12)"></path>
 <path stroke-width="1.0599" stroke-miterlimit="10" stroke-linecap="round" stroke="#000" fill="none" d="m42.008 25.283h-11.106" transform="scale(12)"></path>
 <path stroke-width="1.0599" stroke-miterlimit="10" stroke-linecap="round" stroke="#000" fill="none" d="m50.542 25.283h-1.1139" transform="scale(12)"></path>
 <path stroke-width="1.0599" stroke-miterlimit="10" stroke-linecap="round" stroke="#000" fill="none" d="m54.49 25.283v0" transform="scale(12)"></path>
 <path stroke-width="1.0599" stroke-miterlimit="10" stroke-linecap="round" stroke="#000" fill="none" d="m67.335 25.283h2.5729" transform="scale(12)"></path>
 <path stroke-width="1.0599" stroke-miterlimit="10" stroke-linecap="round" stroke="#000" fill="none" d="m79.793 25.283h0.21615" transform="scale(12)"></path>
 <path stroke-width="1.0599" stroke-miterlimit="10" stroke-linecap="round" stroke="#000" fill="none" d="m86.88 25.283h5.847" transform="scale(12)"></path>
 <path stroke-width="1.0599" stroke-miterlimit="10" stroke-linecap="round" stroke="#000" fill="none" d="m29.489 21.375 4.3721-0.010091" transform="scale(12)"></path>
 <path stroke-width="1.0599" stroke-miterlimit="10" stroke-linecap="round" stroke="#000" fill="none" d="m38.851 21.375 1.2799-0.010091" transform="scale(12)"></path>
 <path stroke-width="1.0599" stroke-miterlimit="10" stroke-linecap="round" stroke="#000" fill="none" d="m63.67 21.375v-0.010091" transform="scale(12)"></path>
 <path stroke-width="1.0599" stroke-miterlimit="10" stroke-linecap="round" stroke="#000" fill="none" d="m25.074 78.635 1.1911-0.004232" transform="scale(12)"></path>
 <path stroke-width="1.0599" stroke-miterlimit="10" stroke-linecap="round" stroke="#000" fill="none" d="m94.785 78.635 0.41471-0.004232" transform="scale(12)"></path>
 <path stroke-width="1.0599" stroke-miterlimit="10" stroke-linecap="round" stroke="#000" fill="none" d="m24.842 74.722 1.821-0.001953" transform="scale(12)"></path>
 <path stroke-width="1.0599" stroke-miterlimit="10" stroke-linecap="round" stroke="#000" fill="none" d="m98.246 74.722 0.44792-0.001953" transform="scale(12)"></path>
 <path stroke-width="1.0599" stroke-miterlimit="10" stroke-linecap="round" stroke="#000" fill="none" d="m89.098 74.722 0.44694-0.001953" transform="scale(12)"></path>
 <path stroke-width="1.0599" stroke-miterlimit="10" stroke-linecap="round" stroke="#000" fill="none" d="m24.367 70.814 5.1891-0.003256" transform="scale(12)"></path>
 <path stroke-width="1.0599" stroke-miterlimit="10" stroke-linecap="round" stroke="#000" fill="none" d="m51.547 70.814 2.2533-0.003256" transform="scale(12)"></path>
 <path stroke-width="1.0599" stroke-miterlimit="10" stroke-linecap="round" stroke="#000" fill="none" d="m80.76 70.814 11.392-0.003256" transform="scale(12)"></path>
 <path stroke-width="1.0599" stroke-miterlimit="10" stroke-linecap="round" stroke="#000" fill="none" d="m24.405 66.902 8.528-0.002929" transform="scale(12)"></path>
 <path stroke-width="1.0599" stroke-miterlimit="10" stroke-linecap="round" stroke="#000" fill="none" d="m49.892 66.902 6.292-0.002929" transform="scale(12)"></path>
 <path stroke-width="1.0599" stroke-miterlimit="10" stroke-linecap="round" stroke="#000" fill="none" d="m59.033 66.902 0.76204-0.002929" transform="scale(12)"></path>
 <path stroke-width="1.0599" stroke-miterlimit="10" stroke-linecap="round" stroke="#000" fill="none" d="m81.124 66.902 10.433-0.002929" transform="scale(12)"></path>
 <path stroke-width="1.0599" stroke-miterlimit="10" stroke-linecap="round" stroke="#000" fill="none" d="m97.563 66.902v-0.002929" transform="scale(12)"></path>
 <path stroke-width="1.0599" stroke-miterlimit="10" stroke-linecap="round" stroke="#000" fill="none" d="m21.408 62.989h13.019" transform="scale(12)"></path>
 <path stroke-width="1.0599" stroke-miterlimit="10" stroke-linecap="round" stroke="#000" fill="none" d="m49.892 62.989h7.6852" transform="scale(12)"></path>
 <path stroke-width="1.0599" stroke-miterlimit="10" stroke-linecap="round" stroke="#000" fill="none" d="m80.231 62.989h0.8929" transform="scale(12)"></path>
 <path stroke-width="1.0599" stroke-miterlimit="10" stroke-linecap="round" stroke="#000" fill="none" d="m82.516 62.989h0.36393" transform="scale(12)"></path>
 <path stroke-width="1.0599" stroke-miterlimit="10" stroke-linecap="round" stroke="#000" fill="none" d="m84.651 62.989v0" transform="scale(12)"></path>
 <path stroke-width="1.0599" stroke-miterlimit="10" stroke-linecap="round" stroke="#000" fill="none" d="m91.888 62.989v0" transform="scale(12)"></path>
 <path stroke-width="1.0599" stroke-miterlimit="10" stroke-linecap="round" stroke="#000" fill="none" d="m95.798 62.989v0" transform="scale(12)"></path>
 <path stroke-width="1.0599" stroke-miterlimit="10" stroke-linecap="round" stroke="#000" fill="none" d="m21.828 59.078h8.0788" transform="scale(12)"></path>
 <path stroke-width="1.0599" stroke-miterlimit="10" stroke-linecap="round" stroke="#000" fill="none" d="m48.522 59.078h11.503" transform="scale(12)"></path>
 <path stroke-width="1.0599" stroke-miterlimit="10" stroke-linecap="round" stroke="#000" fill="none" d="m76.284 59.078h0.28027" transform="scale(12)"></path>
 <path stroke-width="1.0599" stroke-miterlimit="10" stroke-linecap="round" stroke="#000" fill="none" d="m77.721 59.078v0" transform="scale(12)"></path>
 <path stroke-width="1.0599" stroke-miterlimit="10" stroke-linecap="round" stroke="#000" fill="none" d="m82.217 59.078h-1.5391" transform="scale(12)"></path>
 <path stroke-width="1.0599" stroke-miterlimit="10" stroke-linecap="round" stroke="#000" fill="none" d="m17.081 55.167 2.8451-9.76e-4" transform="scale(12)"></path>
 <path stroke-width="1.0599" stroke-miterlimit="10" stroke-linecap="round" stroke="#000" fill="none" d="m27.079 55.167v-9.76e-4" transform="scale(12)"></path>
 <path stroke-width="1.0599" stroke-miterlimit="10" stroke-linecap="round" stroke="#000" fill="none" d="m57.577 55.167-16.828-9.76e-4" transform="scale(12)"></path>
 <path stroke-width="1.0599" stroke-miterlimit="10" stroke-linecap="round" stroke="#000" fill="none" d="m61.086 55.167-1.6729-9.76e-4" transform="scale(12)"></path>
 <path stroke-width="1.0599" stroke-miterlimit="10" stroke-linecap="round" stroke="#000" fill="none" d="m70.194 55.167-1.2259-9.76e-4" transform="scale(12)"></path>
 <path stroke-width="1.0599" stroke-miterlimit="10" stroke-linecap="round" stroke="#000" fill="none" d="m79.335 55.167h-2.7708" transform="scale(12)"></path>
 <path stroke-width="1.0599" stroke-miterlimit="10" stroke-linecap="round" stroke="#000" fill="none" d="m83.321 55.167h-0.20996" transform="scale(12)"></path>
 <path stroke-width="1.0599" stroke-miterlimit="10" stroke-linecap="round" stroke="#000" fill="none" d="m12.84 51.258h3.0472" transform="scale(12)"></path>
 <path stroke-width="1.0599" stroke-miterlimit="10" stroke-linecap="round" stroke="#000" fill="none" d="m11.25 51.258h0.35384" transform="scale(12)"></path>
 <path stroke-width="1.0599" stroke-miterlimit="10" stroke-linecap="round" stroke="#000" fill="none" d="m20.718 51.258h0.35384" transform="scale(12)"></path>
 <path stroke-width="1.0599" stroke-miterlimit="10" stroke-linecap="round" stroke="#000" fill="none" d="m41.645 51.258h13.755" transform="scale(12)"></path>
 <path stroke-width="1.0599" stroke-miterlimit="10" stroke-linecap="round" stroke="#000" fill="none" d="m63.404 51.258h18.703" transform="scale(12)"></path>
 <path stroke-width="1.0599" stroke-miterlimit="10" stroke-linecap="round" stroke="#000" fill="none" d="m56.779 51.258h3.471" transform="scale(12)"></path>
 <path stroke-width="1.0599" stroke-miterlimit="10" stroke-linecap="round" stroke="#000" fill="none" d="m9.5299 47.349 13.24-0.009114" transform="scale(12)"></path>
 <path stroke-width="1.0599" stroke-miterlimit="10" stroke-linecap="round" stroke="#000" fill="none" d="m43.311 47.349 1.6781-0.009114" transform="scale(12)"></path>
 <path stroke-width="1.0599" stroke-miterlimit="10" stroke-linecap="round" stroke="#000" fill="none" d="m50.001 47.349v-0.009114" transform="scale(12)"></path>
 <path stroke-width="1.0599" stroke-miterlimit="10" stroke-linecap="round" stroke="#000" fill="none" d="m52.062 47.349v-0.009114" transform="scale(12)"></path>
 <path stroke-width="1.0599" stroke-miterlimit="10" stroke-linecap="round" stroke="#000" fill="none" d="m53.436 47.349 6.292-0.009114" transform="scale(12)"></path>
 <path stroke-width="1.0599" stroke-miterlimit="10" stroke-linecap="round" stroke="#000" fill="none" d="m62.059 47.349 19.363-0.009114" transform="scale(12)"></path>
 <path stroke-width="1.0599" stroke-miterlimit="10" stroke-linecap="round" stroke="#000" fill="none" d="m84.019 47.349 0.020182-0.009114" transform="scale(12)"></path>
 <path stroke-width="1.0599" stroke-miterlimit="10" stroke-linecap="round" stroke="#000" fill="none" d="m85.907 47.349 1.4329-0.009114" transform="scale(12)"></path>
 <path stroke-width="1.0599" stroke-miterlimit="10" stroke-linecap="round" stroke="#000" fill="none" d="m9.4899 43.308 9.599-0.001953" transform="scale(12)"></path>
 <path stroke-width="1.0599" stroke-miterlimit="10" stroke-linecap="round" stroke="#000" fill="none" d="m21.838 43.308 3.1361-0.001953" transform="scale(12)"></path>
 <path stroke-width="1.0599" stroke-miterlimit="10" stroke-linecap="round" stroke="#000" fill="none" d="m26.001 43.308 1.0492-0.001953" transform="scale(12)"></path>
 <path stroke-width="1.0599" stroke-miterlimit="10" stroke-linecap="round" stroke="#000" fill="none" d="m29.363 43.308 1.0482-0.001953" transform="scale(12)"></path>
 <path stroke-width="1.0599" stroke-miterlimit="10" stroke-linecap="round" stroke="#000" fill="none" d="m86.986 43.308 1.0501-0.001953" transform="scale(12)"></path>
 <path stroke-width="1.0599" stroke-miterlimit="10" stroke-linecap="round" stroke="#000" fill="none" d="m44.989 43.308 40.231-0.001953" transform="scale(12)"></path>
 <path stroke-width="1.0599" stroke-miterlimit="10" stroke-linecap="round" stroke="#000" fill="none" d="m9.5299 39.398 12.298-0.003255" transform="scale(12)"></path>
 <path stroke-width="1.0599" stroke-miterlimit="10" stroke-linecap="round" stroke="#000" fill="none" d="m24.367 39.398 4.5433-0.003255" transform="scale(12)"></path>
 <path stroke-width="1.0599" stroke-miterlimit="10" stroke-linecap="round" stroke="#000" fill="none" d="m44.15 39.398 0.12988-0.003255" transform="scale(12)"></path>
 <path stroke-width="1.0599" stroke-miterlimit="10" stroke-linecap="round" stroke="#000" fill="none" d="m49.229 39.398 0.56315-0.003255" transform="scale(12)"></path>
 <path stroke-width="1.0599" stroke-miterlimit="10" stroke-linecap="round" stroke="#000" fill="none" d="m52.28 39.398 23.048-0.003255" transform="scale(12)"></path>
 <path stroke-width="1.0599" stroke-miterlimit="10" stroke-linecap="round" stroke="#000" fill="none" d="m76.513 39.398 8.707-0.003255" transform="scale(12)"></path>
 <path stroke-width="1.0599" stroke-miterlimit="10" stroke-linecap="round" stroke="#000" fill="none" d="m86.292 39.398v-0.003255" transform="scale(12)"></path>
 <path stroke-width="1.0599" stroke-miterlimit="10" stroke-linecap="round" stroke="#000" fill="none" d="m1.8441 35.358 0.84993-0.001953" transform="scale(12)"></path>
 <path stroke-width="1.0599" stroke-miterlimit="10" stroke-linecap="round" stroke="#000" fill="none" d="m8.3369 35.358 12.839-0.001953" transform="scale(12)"></path>
 <path stroke-width="1.0599" stroke-miterlimit="10" stroke-linecap="round" stroke="#000" fill="none" d="m32.437 35.358 2.8932-0.001953" transform="scale(12)"></path>
 <path stroke-width="1.0599" stroke-miterlimit="10" stroke-linecap="round" stroke="#000" fill="none" d="m39.756 35.358 1.9883-0.001953" transform="scale(12)"></path>
 <path stroke-width="1.0599" stroke-miterlimit="10" stroke-linecap="round" stroke="#000" fill="none" d="m49.428 35.358 1.2588-0.001953" transform="scale(12)"></path>
 <path stroke-width="1.0599" stroke-miterlimit="10" stroke-linecap="round" stroke="#000" fill="none" d="m52.177 35.358 1.2588-0.001953" transform="scale(12)"></path>
 <path stroke-width="1.0599" stroke-miterlimit="10" stroke-linecap="round" stroke="#000" fill="none" d="m55.799 35.358 28.22-0.001953" transform="scale(12)"></path>
 <path stroke-width="1.0599" stroke-miterlimit="10" stroke-linecap="round" stroke="#000" fill="none" d="m89.019 35.358 1.5882-0.001953" transform="scale(12)"></path>
 <path stroke-width="1.0599" stroke-miterlimit="10" stroke-linecap="round" stroke="#000" fill="none" d="m27.05 35.358 1.446-0.001953" transform="scale(12)"></path>
 <path stroke-width="1.0599" stroke-miterlimit="10" stroke-linecap="round" stroke="#000" fill="none" d="m23.438 35.358 0.41471-0.001953" transform="scale(12)"></path>
 <path stroke-width="1.0599" stroke-miterlimit="10" stroke-linecap="round" stroke="#000" fill="none" d="m1.8441 31.452 11.527-0.006184" transform="scale(12)"></path>
 <path stroke-width="1.0599" stroke-miterlimit="10" stroke-linecap="round" stroke="#000" fill="none" d="m15.887 31.452 1.6781-0.006184" transform="scale(12)"></path>
 <path stroke-width="1.0599" stroke-miterlimit="10" stroke-linecap="round" stroke="#000" fill="none" d="m19.244 31.452 0.40788-0.006184" transform="scale(12)"></path>
 <path stroke-width="1.0599" stroke-miterlimit="10" stroke-linecap="round" stroke="#000" fill="none" d="m21.541 31.452 0.15592-0.006184" transform="scale(12)"></path>
 <path stroke-width="1.0599" stroke-miterlimit="10" stroke-linecap="round" stroke="#000" fill="none" d="m22.973 31.452 0.15592-0.006184" transform="scale(12)"></path>
 <path stroke-width="1.0599" stroke-miterlimit="10" stroke-linecap="round" stroke="#000" fill="none" d="m24.974 31.452 0.15592-0.006184" transform="scale(12)"></path>
 <path stroke-width="1.0599" stroke-miterlimit="10" stroke-linecap="round" stroke="#000" fill="none" d="m26.682 31.452 2.2282-0.006184" transform="scale(12)"></path>
 <path stroke-width="1.0599" stroke-miterlimit="10" stroke-linecap="round" stroke="#000" fill="none" d="m33.178 31.452 6.5778-0.006184" transform="scale(12)"></path>
 <path stroke-width="1.0599" stroke-miterlimit="10" stroke-linecap="round" stroke="#000" fill="none" d="m58.061 31.452 0.55208-0.006184" transform="scale(12)"></path>
 <path stroke-width="1.0599" stroke-miterlimit="10" stroke-linecap="round" stroke="#000" fill="none" d="m61.859 31.452 0.66211-0.006184" transform="scale(12)"></path>
 <path stroke-width="1.0599" stroke-miterlimit="10" stroke-linecap="round" stroke="#000" fill="none" d="m63.951 31.452 1.1543-0.006184" transform="scale(12)"></path>
 <path stroke-width="1.0599" stroke-miterlimit="10" stroke-linecap="round" stroke="#000" fill="none" d="m66.299 31.452 21.968-0.006184" transform="scale(12)"></path>
 <path stroke-width="1.0599" stroke-miterlimit="10" stroke-linecap="round" stroke="#000" fill="none" d="m89.415 31.452 2.2529-0.006184" transform="scale(12)"></path>
 <path stroke-width="1.0599" stroke-miterlimit="10" stroke-linecap="round" stroke="#000" fill="none" d="m10.146 27.265-5.7402-9.77e-4" transform="scale(12)"></path>
 <path stroke-width="1.0599" stroke-miterlimit="10" stroke-linecap="round" stroke="#000" fill="none" d="m18.935 27.265-2.7389-9.77e-4" transform="scale(12)"></path>
 <path stroke-width="1.0599" stroke-miterlimit="10" stroke-linecap="round" stroke="#000" fill="none" d="m27.348 27.265-2.209-9.77e-4" transform="scale(12)"></path>
 <path stroke-width="1.0599" stroke-miterlimit="10" stroke-linecap="round" stroke="#000" fill="none" d="m41.435 27.265-10.225-9.77e-4" transform="scale(12)"></path>
 <path stroke-width="1.0599" stroke-miterlimit="10" stroke-linecap="round" stroke="#000" fill="none" d="m49.075 27.265-0.81771-9.77e-4" transform="scale(12)"></path>
 <path stroke-width="1.0599" stroke-miterlimit="10" stroke-linecap="round" stroke="#000" fill="none" d="m60.226 27.265v-9.77e-4" transform="scale(12)"></path>
 <path stroke-width="1.0599" stroke-miterlimit="10" stroke-linecap="round" stroke="#000" fill="none" d="m65.701 27.265 3.8861-9.77e-4" transform="scale(12)"></path>
 <path stroke-width="1.0599" stroke-miterlimit="10" stroke-linecap="round" stroke="#000" fill="none" d="m71.045 27.265 4.5911-9.77e-4" transform="scale(12)"></path>
 <path stroke-width="1.0599" stroke-miterlimit="10" stroke-linecap="round" stroke="#000" fill="none" d="m76.917 27.265 14.089-9.77e-4" transform="scale(12)"></path>
 <path stroke-width="1.0599" stroke-miterlimit="10" stroke-linecap="round" stroke="#000" fill="none" d="m21.408 27.265v-9.77e-4" transform="scale(12)"></path>
 <path stroke-width="1.0599" stroke-miterlimit="10" stroke-linecap="round" stroke="#000" fill="none" d="m20.834 23.355v-0.008138" transform="scale(12)"></path>
 <path stroke-width="1.0599" stroke-miterlimit="10" stroke-linecap="round" stroke="#000" fill="none" d="m22.424 23.355v-0.008138" transform="scale(12)"></path>
 <path stroke-width="1.0599" stroke-miterlimit="10" stroke-linecap="round" stroke="#000" fill="none" d="m24.632 23.355v-0.008138" transform="scale(12)"></path>
 <path stroke-width="1.0599" stroke-miterlimit="10" stroke-linecap="round" stroke="#000" fill="none" d="m27.855 23.355-1.0153-0.008138" transform="scale(12)"></path>
 <path stroke-width="1.0599" stroke-miterlimit="10" stroke-linecap="round" stroke="#000" fill="none" d="m31.674 23.355-2.764-0.008138" transform="scale(12)"></path>
 <path stroke-width="1.0599" stroke-miterlimit="10" stroke-linecap="round" stroke="#000" fill="none" d="m39.492 23.355-5.9948-0.008138" transform="scale(12)"></path>
 <path stroke-width="1.0599" stroke-miterlimit="10" stroke-linecap="round" stroke="#000" fill="none" d="m57.1 23.355-0.32096-0.008138" transform="scale(12)"></path>
 <path stroke-width="1.0599" stroke-miterlimit="10" stroke-linecap="round" stroke="#000" fill="none" d="m66.02 23.355-1.2467-0.008138" transform="scale(12)"></path>
 <path stroke-width="1.0599" stroke-miterlimit="10" stroke-linecap="round" stroke="#000" fill="none" d="m76.881 23.355-1.2448-0.008138" transform="scale(12)"></path>
 <path stroke-width="1.0599" stroke-miterlimit="10" stroke-linecap="round" stroke="#000" fill="none" d="m78.157 23.355-0.22689-0.008138" transform="scale(12)"></path>
</svg>
